<svg xmlns="http://www.w3.org/2000/svg" xmlns:xlink="http://www.w3.org/1999/xlink" version="1.1" x="0px" y="0px" viewBox="0 0 100 125" style="enable-background:new 0 0 100 100;" xml:space="preserve"><path d="M10.3,63H3.6c-1.1,0-2-0.9-2-2v-3.2c0-0.6,0.3-1.2,0.8-1.6c-0.3-3.3,0.1-5.3,0.2-5.8c0.8-4.7,7.6-6.5,8.4-6.7L23.1,41  c12.1-5.7,19.8-7.4,20.1-7.5c0,0,0.1,0,0.1,0l6.4-1.1c0.1,0,0.2,0,0.2,0c4.3-0.2,11,0,11.3,0c12.3,0.8,23.5,5.9,25.3,6.7l7.4,1.7  c0.5,0.1,0.9,0.4,1.2,0.8c1.3,1.7,1.6,5.3,1.7,7.1l1,1.2c0.2,0.3,0.4,0.6,0.4,0.9c0.8,5.1-0.6,8.1-0.7,8.5c-0.1,0.2-0.2,0.3-0.3,0.5  c-1.3,1.4-7.6,2.5-11.2,3c-1.1,0.2-2.1-0.6-2.3-1.7s0.6-2.1,1.7-2.3c3-0.4,7.2-1.3,8.7-1.8c0.2-0.8,0.6-2.5,0.3-5l-1.1-1.3  c-0.3-0.3-0.4-0.8-0.5-1.2c0-1.9-0.3-3.9-0.7-4.9L85.4,43c-0.1,0-0.3-0.1-0.4-0.1c-0.1-0.1-11.7-5.6-23.9-6.4c0,0,0,0,0,0  c0,0-6.7-0.2-10.8,0l-6.2,1.1c-0.6,0.1-8.2,2-19.4,7.3c-0.1,0.1-0.3,0.1-0.4,0.1l-12.3,2.8c-2,0.5-5.2,1.9-5.4,3.4  c0,0.1,0,0.1,0,0.2c0,0-0.4,2,0,5.8c0.1,0.8-0.3,1.5-0.9,1.9h4.7c1.1,0,2,0.9,2,2S11.4,63,10.3,63z"/><path d="M71.3,63.4c-23.8,0-42-0.3-46.6-0.4c-1.1,0-2-0.9-1.9-2c0-1.1,0.9-1.9,2-1.9c0,0,0,0,0.1,0c4.5,0.1,22.6,0.4,46.5,0.4  c1.1,0,2,0.9,2,2S72.4,63.4,71.3,63.4z"/><path d="M78.4,67.7c-5.1,0-9.2-4.1-9.2-9.2s4.1-9.2,9.2-9.2s9.2,4.1,9.2,9.2S83.5,67.7,78.4,67.7z M78.4,53.4  c-2.8,0-5.2,2.3-5.2,5.2s2.3,5.2,5.2,5.2c2.8,0,5.2-2.3,5.2-5.2S81.3,53.4,78.4,53.4z"/><path d="M17.1,67.7c-5.1,0-9.2-4.1-9.2-9.2s4.1-9.2,9.2-9.2s9.2,4.1,9.2,9.2S22.1,67.7,17.1,67.7z M17.1,53.4  c-2.8,0-5.2,2.3-5.2,5.2s2.3,5.2,5.2,5.2s5.2-2.3,5.2-5.2S19.9,53.4,17.1,53.4z"/><text x="0" y="115" fill="#000000" font-size="5px" font-weight="bold" font-family="'Helvetica Neue', Helvetica, Arial-Unicode, Arial, Sans-serif">Created by jayson lim</text><text x="0" y="120" fill="#000000" font-size="5px" font-weight="bold" font-family="'Helvetica Neue', Helvetica, Arial-Unicode, Arial, Sans-serif">from the Noun Project</text></svg>